<svg xmlns="http://www.w3.org/2000/svg" xmlns:xlink="http://www.w3.org/1999/xlink" width="60" height="60"><defs><path d="M59.94 30.02c0 16.56-13.44 30-30 30-16.56 0-30-13.44-30-30 0-16.56 13.44-30 30-30 16.56 0 30 13.44 30 30z" id="c"/><path d="M22.35 40.45c-.19-1.44.27.2.43-3.4.11-1.67.43-2.35.76-2.42.45-.1.96.67 1.2 1.83.46 2.16 1.69 7.38 4.96 7.47.11-.02.11-.02.22-.05 4.22-.9 8.86-4.15 12.36-7.33 3.83-5.43-5.54-4.73-11.03-5.48-3.21-.36-6.02-1.59-7.93-3.44-3.38-3.37-4.22-4.58-3.66-4.7.66-.14 3.47 1.61 5.51 3 3.98 2.89 10.49 3.51 13.7 2.82.89-.19 1.52-.5 1.78-.9 1.14-1.72.93-5.42-3.17-11.07-1.48-2.03-1.65-2.87-1.32-2.94.66-.14 3.32 1.99 4.76 3.86 3.54 4.64 3.35 9.73 3.85 11.53.35 1.06.99 1.36 1.77 1.19.44-.09 1.07-.4 1.44-.83 2.2-4.38 2.74-11.63.37-17.3-1.39-3.27-2.07-5.39-1.52-5.51.11-.02.35.02.64.3 9.08 6.68 6.36 24.4-1.4 30.4-6.6 5.5-13.3 9.97-24.35 20.16-.78.69-3.59-3.24-2.88-3.74 0 0 1.7-1.23 3.62-4.77 2.04-4 .19-7.26-.11-8.68z" id="a"/><linearGradient id="d" gradientUnits="userSpaceOnUse" x1="21.23" y1="54.25" x2="48.68" y2="10.5"><stop offset="0%" stop-color="#68573a"/><stop offset="100%" stop-color="#f1cccc"/></linearGradient><mask id="e" x="17.76" y="5.82" width="36.38" height="52.86" maskUnits="userSpaceOnUse"><path fill="#fff" d="M17.76 5.82h36.38v52.86H17.76z"/><use xlink:href="#a"/></mask><path d="M36.69 40.44c.19-1.44-.27.2-.43-3.4-.11-1.68-.43-2.36-.76-2.43-.44-.09-.95.67-1.2 1.83-.46 2.17-1.69 7.39-4.96 7.47l-.22-.04c-4.22-.9-8.86-4.15-12.35-7.33-3.83-5.43 5.53-4.74 11.02-5.48 3.21-.36 6.02-1.59 7.93-3.45 3.38-3.37 4.22-4.58 3.67-4.7-.67-.14-3.48 1.61-5.52 3-3.98 2.9-10.48 3.51-13.7 2.82-.89-.18-1.52-.49-1.78-.9-1.14-1.72-.93-5.42 3.17-11.07 1.48-2.03 1.65-2.86 1.32-2.93-.66-.14-3.32 1.99-4.76 3.85-3.54 4.64-3.35 9.73-3.85 11.54-.34 1.06-.99 1.35-1.76 1.19-.45-.1-1.08-.41-1.45-.83-2.2-4.39-2.74-11.64-.37-17.31 1.39-3.27 2.07-5.38 1.52-5.5-.11-.03-.35.01-.64.29-9.08 6.68-6.36 24.4 1.4 30.41 6.6 5.49 13.3 9.97 24.35 20.15.78.69 3.59-3.23 2.89-3.73 0 0-1.71-1.24-3.63-4.78-2.04-4-.19-7.26.11-8.67z" id="b"/><linearGradient id="f" gradientUnits="userSpaceOnUse" x1="37.81" y1="54.23" x2="10.36" y2="10.49"><stop offset="0%" stop-color="#68573a"/><stop offset="100%" stop-color="#f1cccc"/></linearGradient><mask id="g" x="4.9" y="5.8" width="36.38" height="52.86" maskUnits="userSpaceOnUse"><path fill="#fff" d="M4.9 5.8h36.38v52.86H4.9z"/><use xlink:href="#b"/></mask><path d="M30.03 11.08c-1.98 3.66-3.08 5.7-3.3 6.1-.37.66-1.04.6-1.71.23-.16-.08-.96-.49-2.39-1.22 1.07 5.62 1.66 8.74 1.78 9.37.37 1.71-.83 1.71-1.42.97-.28-.31-1.67-1.85-4.17-4.63-.4 1.41-.63 2.19-.68 2.35-.07.31-.42.63-.93.56-.35-.08-2.11-.44-5.27-1.1.83 2.99 1.29 4.65 1.38 4.99.3 1.11.53 1.57-.3 1.86-.12.06-.75.35-1.88.88 5.45 4.38 8.47 6.81 9.08 7.3.36.28.54.77.41 1.22-.08.26-.71 2.33-.79 2.59 3.12-.36 5.92-.9 9.05-1.23.27-.03.73.43.73.74-.03.63-.16 3.79-.41 9.47h1.52c-.15-5.67-.23-8.82-.24-9.45 0-.31.41-.79.69-.76 3.13.33 5.93.87 9.05 1.23-.08-.26-.71-2.33-.79-2.59-.13-.45.05-.94.41-1.22.6-.49 3.63-2.92 9.07-7.3-1.13-.53-1.75-.82-1.88-.88-.82-.29-.59-.75-.3-1.86.1-.34.56-2 1.39-4.99-3.16.66-4.92 1.02-5.27 1.1-.52.07-.86-.25-.94-.56-.04-.16-.27-.94-.67-2.35-2.51 2.78-3.9 4.32-4.17 4.63-.6.74-1.8.74-1.42-.97.12-.63.71-3.75 1.78-9.37-1.44.73-2.23 1.14-2.39 1.22-.67.37-1.34.43-1.72-.23" id="h"/></defs><use xlink:href="#c"/><use xlink:href="#c" fill-opacity="0" stroke="#f72d5b" stroke-width="0"/><use xlink:href="#a" fill="url(#d)"/><g mask="url(#e)"><use xlink:href="#a" fill-opacity="0" stroke="#e37925" stroke-width=".96" stroke-opacity=".35"/></g><g><use xlink:href="#b" fill="url(#f)"/><g mask="url(#g)"><use xlink:href="#b" fill-opacity="0" stroke="#e37925" stroke-width=".96" stroke-opacity=".35"/></g></g><g><use xlink:href="#h" fill="red"/></g></svg>
