<svg xmlns="http://www.w3.org/2000/svg" xmlns:xlink="http://www.w3.org/1999/xlink" width="60" height="60"><defs><path d="M59.94 30.02c0 16.56-13.44 30-30 30-16.56 0-30-13.44-30-30 0-16.56 13.44-30 30-30 16.56 0 30 13.44 30 30z" id="c"/><path d="M22.35 40.45c-.19-1.44.27.2.43-3.4.11-1.67.43-2.35.76-2.42.45-.1.96.67 1.2 1.83.46 2.16 1.69 7.38 4.96 7.47.11-.02.11-.02.22-.05 4.22-.9 8.86-4.15 12.36-7.33 3.83-5.43-5.54-4.73-11.03-5.48-3.21-.36-6.02-1.59-7.93-3.44-3.38-3.37-4.22-4.58-3.66-4.7.66-.14 3.47 1.61 5.51 3 3.98 2.89 10.49 3.51 13.7 2.82.89-.19 1.52-.5 1.78-.9 1.14-1.72.93-5.42-3.17-11.07-1.48-2.03-1.65-2.87-1.32-2.94.66-.14 3.32 1.99 4.76 3.86 3.54 4.64 3.35 9.73 3.85 11.53.35 1.06.99 1.36 1.77 1.19.44-.09 1.07-.4 1.44-.83 2.2-4.38 2.74-11.63.37-17.3-1.39-3.27-2.07-5.39-1.52-5.51.11-.02.35.02.64.3 9.08 6.68 6.36 24.4-1.4 30.4-6.6 5.5-13.3 9.97-24.35 20.16-.78.69-3.59-3.24-2.88-3.74 0 0 1.7-1.23 3.62-4.77 2.04-4 .19-7.26-.11-8.68z" id="a"/><linearGradient id="d" gradientUnits="userSpaceOnUse" x1="21.23" y1="54.25" x2="48.68" y2="10.5"><stop offset="0%" stop-color="#68573a"/><stop offset="100%" stop-color="#f1cccc"/></linearGradient><mask id="e" x="17.76" y="5.82" width="36.38" height="52.86" maskUnits="userSpaceOnUse"><path fill="#fff" d="M17.76 5.82h36.38v52.86H17.76z"/><use xlink:href="#a"/></mask><path d="M36.69 40.44c.19-1.44-.27.2-.43-3.4-.11-1.68-.43-2.36-.76-2.43-.44-.09-.95.67-1.2 1.83-.46 2.17-1.69 7.39-4.96 7.47l-.22-.04c-4.22-.9-8.86-4.15-12.35-7.33-3.83-5.43 5.53-4.74 11.02-5.48 3.21-.36 6.02-1.59 7.93-3.45 3.38-3.37 4.22-4.58 3.67-4.7-.67-.14-3.48 1.61-5.52 3-3.98 2.9-10.48 3.51-13.7 2.82-.89-.18-1.52-.49-1.78-.9-1.14-1.72-.93-5.42 3.17-11.07 1.48-2.03 1.65-2.86 1.32-2.93-.66-.14-3.32 1.99-4.76 3.85-3.54 4.64-3.35 9.73-3.85 11.54-.34 1.06-.99 1.35-1.76 1.19-.45-.1-1.08-.41-1.45-.83-2.2-4.39-2.74-11.64-.37-17.31 1.39-3.27 2.07-5.38 1.52-5.5-.11-.03-.35.01-.64.29-9.08 6.68-6.36 24.4 1.4 30.41 6.6 5.49 13.3 9.97 24.35 20.15.78.69 3.59-3.23 2.89-3.73 0 0-1.71-1.24-3.63-4.78-2.04-4-.19-7.26.11-8.67z" id="b"/><linearGradient id="f" gradientUnits="userSpaceOnUse" x1="37.81" y1="54.23" x2="10.36" y2="10.49"><stop offset="0%" stop-color="#68573a"/><stop offset="100%" stop-color="#f1cccc"/></linearGradient><mask id="g" x="4.9" y="5.8" width="36.38" height="52.86" maskUnits="userSpaceOnUse"><path fill="#fff" d="M4.9 5.8h36.38v52.86H4.9z"/><use xlink:href="#b"/></mask></defs><use xlink:href="#c" fill="#383838"/><use xlink:href="#c" stroke-width="0" stroke="#f72d5b" fill-opacity="0"/><use xlink:href="#a" fill="url(#d)"/><g mask="url(#e)"><use xlink:href="#a" stroke-opacity=".35" stroke-width=".96" stroke="#e37925" fill-opacity="0"/></g><g><use xlink:href="#b" fill="url(#f)"/><g mask="url(#g)"><use xlink:href="#b" stroke-opacity=".35" stroke-width=".96" stroke="#e37925" fill-opacity="0"/></g></g><path d="M30.056893 12.720308l-3.49318 6.032621c-.396383.655642-1.106572.59483-1.816762.228632l-2.528962-1.212546 1.884875 9.265978c.396382 1.692843-.875375 1.692843-1.502986.960884l-4.413549-4.574904-.71653 2.323248c-.08264.30509-.445935.62553-.990975.549224l-5.580981-1.086495 1.465879 4.934614c.313808 1.098006.558581 1.552619-.3168 1.842215l-1.989241.865679 9.607296 7.225688c.380257.273209.572389.764871.437014 1.210035l-.840847 2.554977c3.307927-.353059 6.271901-.884237 9.581498-1.211369.292192-.02886.781311.417568.779292.731076l-.438288 9.360443h1.60833l-.253176-9.340367c-.0018-.313507.441727-.780033.733919-.751152 3.309596.327137 6.273573.85831 9.5815 1.211369l-.840845-2.554977c-.135376-.445164.05676-.936826.437011-1.210035l9.607296-7.225688-1.989245-.865679c-.875381-.289596-.630602-.744209-.316795-1.842215l1.465882-4.934614-5.580996 1.086495c-.545034.07631-.908333-.244134-.99098-.549224l-.71651-2.323248-4.413552 4.574904c-.627613.731959-1.899372.731959-1.50299-.960884l1.884873-9.265978-2.528958 1.212546c-.710199.366198-1.420378.42701-1.816761-.228632z" fill="red" stroke="#fff" stroke-width=".6"/></svg>
